<?plantuml 1.2026.2?><svg xmlns="http://www.w3.org/2000/svg" xmlns:xlink="http://www.w3.org/1999/xlink" contentStyleType="text/css" data-diagram-type="CLASS" height="843px" preserveAspectRatio="none" style="width:936px;height:843px;background:#FFFFFF;" version="1.1" viewBox="0 0 936 843" width="936px" zoomAndPan="magnify"><defs/><g><!--class USERS--><g class="entity" data-qualified-name="USERS" data-source-line="1" id="ent0002"><rect fill="#F1F1F1" height="129.4844" rx="2.5" ry="2.5" style="stroke:#181818;stroke-width:0.5;" width="209.2578" x="301" y="7"/><ellipse cx="382.4639" cy="23" fill="#ADD1B2" rx="11" ry="11" style="stroke:#181818;stroke-width:1;"/><path d="M386.5732,29 L378.8545,29 L378.8545,16.6094 L386.5732,16.6094 L386.5732,18.7656 L381.3076,18.7656 L381.3076,21.4375 L386.0732,21.4375 L386.0732,23.5938 L381.3076,23.5938 L381.3076,26.8438 L386.5732,26.8438 L386.5732,29 Z " fill="#000000"/><text fill="#000000" font-family="sans-serif" font-size="14" lengthAdjust="spacing" textLength="37.8301" x="402.9639" y="27.8467">users</text><line style="stroke:#181818;stroke-width:0.5;" x1="302" x2="509.2578" y1="39" y2="39"/><g data-visibility-modifier="IE_MANDATORY"><ellipse cx="312" cy="52.6484" fill="#000000" rx="3" ry="3" style="stroke:#000000;stroke-width:1;"/></g><text fill="#000000" font-family="sans-serif" font-size="14" lengthAdjust="spacing" textLength="113.333" x="321" y="55.9951">id : BIGINT &#171;PK&#187;</text><line style="stroke:#181818;stroke-width:1;" x1="302" x2="509.2578" y1="63.2969" y2="63.2969"/><text fill="#000000" font-family="sans-serif" font-size="14" lengthAdjust="spacing" textLength="121.8096" x="307" y="80.292">name : VARCHAR</text><text fill="#000000" font-family="sans-serif" font-size="14" lengthAdjust="spacing" textLength="197.2578" x="307" y="96.5889">email : VARCHAR &#171;UNIQUE&#187;</text><text fill="#000000" font-family="sans-serif" font-size="14" lengthAdjust="spacing" textLength="189.4375" x="307" y="112.8857">password_hash : VARCHAR</text><text fill="#000000" font-family="sans-serif" font-size="14" lengthAdjust="spacing" textLength="159.6807" x="307" y="129.1826">created_at : DATETIME</text></g><!--class URLS--><g class="entity" data-qualified-name="URLS" data-source-line="10" id="ent0003"><rect fill="#F1F1F1" height="178.375" rx="2.5" ry="2.5" style="stroke:#181818;stroke-width:0.5;" width="247.3887" x="7" y="419"/><ellipse cx="113.5381" cy="435" fill="#ADD1B2" rx="11" ry="11" style="stroke:#181818;stroke-width:1;"/><path d="M117.6475,441 L109.9287,441 L109.9287,428.6094 L117.6475,428.6094 L117.6475,430.7656 L112.3818,430.7656 L112.3818,433.4375 L117.1475,433.4375 L117.1475,435.5938 L112.3818,435.5938 L112.3818,438.8438 L117.6475,438.8438 L117.6475,441 Z " fill="#000000"/><text fill="#000000" font-family="sans-serif" font-size="14" lengthAdjust="spacing" textLength="25.8125" x="134.0381" y="439.8467">urls</text><line style="stroke:#181818;stroke-width:0.5;" x1="8" x2="253.3887" y1="451" y2="451"/><g data-visibility-modifier="IE_MANDATORY"><ellipse cx="18" cy="464.6484" fill="#000000" rx="3" ry="3" style="stroke:#000000;stroke-width:1;"/></g><text fill="#000000" font-family="sans-serif" font-size="14" lengthAdjust="spacing" textLength="113.333" x="27" y="467.9951">id : BIGINT &#171;PK&#187;</text><line style="stroke:#181818;stroke-width:1;" x1="8" x2="253.3887" y1="475.2969" y2="475.2969"/><text fill="#000000" font-family="sans-serif" font-size="14" lengthAdjust="spacing" textLength="150.4795" x="13" y="492.292">user_id : BIGINT &#171;FK&#187;</text><text fill="#000000" font-family="sans-serif" font-size="14" lengthAdjust="spacing" textLength="235.3887" x="13" y="508.5889">short_code : VARCHAR &#171;UNIQUE&#187;</text><text fill="#000000" font-family="sans-serif" font-size="14" lengthAdjust="spacing" textLength="127.0049" x="13" y="524.8857">original_url : TEXT</text><text fill="#000000" font-family="sans-serif" font-size="14" lengthAdjust="spacing" textLength="190.9277" x="13" y="541.1826">is_custom_alias : BOOLEAN</text><text fill="#000000" font-family="sans-serif" font-size="14" lengthAdjust="spacing" textLength="159.6807" x="13" y="557.4795">created_at : DATETIME</text><text fill="#000000" font-family="sans-serif" font-size="14" lengthAdjust="spacing" textLength="157.3838" x="13" y="573.7764">expires_at : DATETIME</text><text fill="#000000" font-family="sans-serif" font-size="14" lengthAdjust="spacing" textLength="126.1025" x="13" y="590.0732">hit_count : BIGINT</text></g><!--class CLICKS--><g class="entity" data-qualified-name="CLICKS" data-source-line="22" id="ent0004"><rect fill="#F1F1F1" height="162.0781" rx="2.5" ry="2.5" style="stroke:#181818;stroke-width:0.5;" width="178.3662" x="41.5" y="674"/><ellipse cx="107.1455" cy="690" fill="#ADD1B2" rx="11" ry="11" style="stroke:#181818;stroke-width:1;"/><path d="M111.2549,696 L103.5361,696 L103.5361,683.6094 L111.2549,683.6094 L111.2549,685.7656 L105.9893,685.7656 L105.9893,688.4375 L110.7549,688.4375 L110.7549,690.5938 L105.9893,690.5938 L105.9893,693.8438 L111.2549,693.8438 L111.2549,696 Z " fill="#000000"/><text fill="#000000" font-family="sans-serif" font-size="14" lengthAdjust="spacing" textLength="38.5752" x="127.6455" y="694.8467">clicks</text><line style="stroke:#181818;stroke-width:0.5;" x1="42.5" x2="218.8662" y1="706" y2="706"/><g data-visibility-modifier="IE_MANDATORY"><ellipse cx="52.5" cy="719.6484" fill="#000000" rx="3" ry="3" style="stroke:#000000;stroke-width:1;"/></g><text fill="#000000" font-family="sans-serif" font-size="14" lengthAdjust="spacing" textLength="113.333" x="61.5" y="722.9951">id : BIGINT &#171;PK&#187;</text><line style="stroke:#181818;stroke-width:1;" x1="42.5" x2="218.8662" y1="730.2969" y2="730.2969"/><text fill="#000000" font-family="sans-serif" font-size="14" lengthAdjust="spacing" textLength="138.4619" x="47.5" y="747.292">url_id : BIGINT &#171;FK&#187;</text><text fill="#000000" font-family="sans-serif" font-size="14" lengthAdjust="spacing" textLength="154.8271" x="47.5" y="763.5889">clicked_at : DATETIME</text><text fill="#000000" font-family="sans-serif" font-size="14" lengthAdjust="spacing" textLength="157.1924" x="47.5" y="779.8857">ip_address : VARCHAR</text><text fill="#000000" font-family="sans-serif" font-size="14" lengthAdjust="spacing" textLength="135.6455" x="47.5" y="796.1826">country : VARCHAR</text><text fill="#000000" font-family="sans-serif" font-size="14" lengthAdjust="spacing" textLength="166.3662" x="47.5" y="812.4795">device_type : VARCHAR</text><text fill="#000000" font-family="sans-serif" font-size="14" lengthAdjust="spacing" textLength="138.4277" x="47.5" y="828.7764">browser : VARCHAR</text></g><!--class API_KEYS--><g class="entity" data-qualified-name="API_KEYS" data-source-line="33" id="ent0005"><rect fill="#F1F1F1" height="129.4844" rx="2.5" ry="2.5" style="stroke:#181818;stroke-width:0.5;" width="224.0098" x="171.5" y="213"/><ellipse cx="248.9272" cy="229" fill="#ADD1B2" rx="11" ry="11" style="stroke:#181818;stroke-width:1;"/><path d="M253.0366,235 L245.3179,235 L245.3179,222.6094 L253.0366,222.6094 L253.0366,224.7656 L247.771,224.7656 L247.771,227.4375 L252.5366,227.4375 L252.5366,229.5938 L247.771,229.5938 L247.771,232.8438 L253.0366,232.8438 L253.0366,235 Z " fill="#000000"/><text fill="#000000" font-family="sans-serif" font-size="14" lengthAdjust="spacing" textLength="60.6553" x="269.4272" y="233.8467">api_keys</text><line style="stroke:#181818;stroke-width:0.5;" x1="172.5" x2="394.5098" y1="245" y2="245"/><g data-visibility-modifier="IE_MANDATORY"><ellipse cx="182.5" cy="258.6484" fill="#000000" rx="3" ry="3" style="stroke:#000000;stroke-width:1;"/></g><text fill="#000000" font-family="sans-serif" font-size="14" lengthAdjust="spacing" textLength="113.333" x="191.5" y="261.9951">id : BIGINT &#171;PK&#187;</text><line style="stroke:#181818;stroke-width:1;" x1="172.5" x2="394.5098" y1="269.2969" y2="269.2969"/><text fill="#000000" font-family="sans-serif" font-size="14" lengthAdjust="spacing" textLength="150.4795" x="177.5" y="286.292">user_id : BIGINT &#171;FK&#187;</text><text fill="#000000" font-family="sans-serif" font-size="14" lengthAdjust="spacing" textLength="212.0098" x="177.5" y="302.5889">api_key : VARCHAR &#171;UNIQUE&#187;</text><text fill="#000000" font-family="sans-serif" font-size="14" lengthAdjust="spacing" textLength="159.6807" x="177.5" y="318.8857">created_at : DATETIME</text><text fill="#000000" font-family="sans-serif" font-size="14" lengthAdjust="spacing" textLength="157.3838" x="177.5" y="335.1826">expires_at : DATETIME</text></g><!--class RATE_LIMITS--><g class="entity" data-qualified-name="RATE_LIMITS" data-source-line="42" id="ent0006"><rect fill="#F1F1F1" height="113.1875" rx="2.5" ry="2.5" style="stroke:#181818;stroke-width:0.5;" width="194.3555" x="430.5" y="221"/><ellipse cx="486.6641" cy="237" fill="#ADD1B2" rx="11" ry="11" style="stroke:#181818;stroke-width:1;"/><path d="M490.7734,243 L483.0547,243 L483.0547,230.6094 L490.7734,230.6094 L490.7734,232.7656 L485.5078,232.7656 L485.5078,235.4375 L490.2734,235.4375 L490.2734,237.5938 L485.5078,237.5938 L485.5078,240.8438 L490.7734,240.8438 L490.7734,243 Z " fill="#000000"/><text fill="#000000" font-family="sans-serif" font-size="14" lengthAdjust="spacing" textLength="73.5273" x="507.1641" y="241.8467">rate_limits</text><line style="stroke:#181818;stroke-width:0.5;" x1="431.5" x2="623.8555" y1="253" y2="253"/><g data-visibility-modifier="IE_MANDATORY"><ellipse cx="441.5" cy="266.6484" fill="#000000" rx="3" ry="3" style="stroke:#000000;stroke-width:1;"/></g><text fill="#000000" font-family="sans-serif" font-size="14" lengthAdjust="spacing" textLength="113.333" x="450.5" y="269.9951">id : BIGINT &#171;PK&#187;</text><line style="stroke:#181818;stroke-width:1;" x1="431.5" x2="623.8555" y1="277.2969" y2="277.2969"/><text fill="#000000" font-family="sans-serif" font-size="14" lengthAdjust="spacing" textLength="150.4795" x="436.5" y="294.292">user_id : BIGINT &#171;FK&#187;</text><text fill="#000000" font-family="sans-serif" font-size="14" lengthAdjust="spacing" textLength="182.3555" x="436.5" y="310.5889">requests_count : INTEGER</text><text fill="#000000" font-family="sans-serif" font-size="14" lengthAdjust="spacing" textLength="177.7002" x="436.5" y="326.8857">window_start : DATETIME</text></g><!--class DOMAINS--><g class="entity" data-qualified-name="DOMAINS" data-source-line="50" id="ent0007"><rect fill="#F1F1F1" height="113.1875" rx="2.5" ry="2.5" style="stroke:#181818;stroke-width:0.5;" width="269.7832" x="659.5" y="221"/><ellipse cx="760.2788" cy="237" fill="#ADD1B2" rx="11" ry="11" style="stroke:#181818;stroke-width:1;"/><path d="M764.3882,243 L756.6694,243 L756.6694,230.6094 L764.3882,230.6094 L764.3882,232.7656 L759.1226,232.7656 L759.1226,235.4375 L763.8882,235.4375 L763.8882,237.5938 L759.1226,237.5938 L759.1226,240.8438 L764.3882,240.8438 L764.3882,243 Z " fill="#000000"/><text fill="#000000" font-family="sans-serif" font-size="14" lengthAdjust="spacing" textLength="59.7256" x="780.7788" y="241.8467">domains</text><line style="stroke:#181818;stroke-width:0.5;" x1="660.5" x2="928.2832" y1="253" y2="253"/><g data-visibility-modifier="IE_MANDATORY"><ellipse cx="670.5" cy="266.6484" fill="#000000" rx="3" ry="3" style="stroke:#000000;stroke-width:1;"/></g><text fill="#000000" font-family="sans-serif" font-size="14" lengthAdjust="spacing" textLength="113.333" x="679.5" y="269.9951">id : BIGINT &#171;PK&#187;</text><line style="stroke:#181818;stroke-width:1;" x1="660.5" x2="928.2832" y1="277.2969" y2="277.2969"/><text fill="#000000" font-family="sans-serif" font-size="14" lengthAdjust="spacing" textLength="150.4795" x="665.5" y="294.292">user_id : BIGINT &#171;FK&#187;</text><text fill="#000000" font-family="sans-serif" font-size="14" lengthAdjust="spacing" textLength="257.7832" x="665.5" y="310.5889">domain_name : VARCHAR &#171;UNIQUE&#187;</text><text fill="#000000" font-family="sans-serif" font-size="14" lengthAdjust="spacing" textLength="134.8184" x="665.5" y="326.8857">verified : BOOLEAN</text></g><!--link USERS to URLS--><g class="link" data-entity-1="ent0002" data-entity-2="ent0003" data-link-type="crowfoot" data-source-line="58" id="lnk8"><path codeLine="58" d="M293.0288,96.6036 C228.4088,116.0336 158.21,149.34 118.5,213 C80.44,274 83.8016,339.2635 98.1916,401.4435" fill="none" id="USERS-URLS" style="stroke:#181818;stroke-width:1;"/><line style="stroke:#181818;stroke-width:1;" x1="295.7076" x2="298.0112" y1="91.6212" y2="99.2824"/><line style="stroke:#181818;stroke-width:1;" x1="292.8347" x2="295.1383" y1="92.485" y2="100.1462"/><line style="stroke:#181818;stroke-width:1;" x1="293.0288" x2="300.69" y1="96.6036" y2="94.3"/><line style="stroke:#181818;stroke-width:1;" x1="100.4463" x2="108.0955" y1="411.186" y2="417.6272"/><line style="stroke:#181818;stroke-width:1;" x1="100.4463" x2="96.4045" y1="411.186" y2="420.3328"/><line style="stroke:#181818;stroke-width:1;" x1="100.4463" x2="102.25" y1="411.186" y2="418.98"/><ellipse cx="99.0935" cy="405.3405" fill="none" rx="4" ry="4" style="stroke:#181818;stroke-width:1;"/><text fill="#000000" font-family="sans-serif" font-size="13" lengthAdjust="spacing" textLength="33.5981" x="119.5" y="282.0669">owns</text></g><!--link USERS to API_KEYS--><g class="link" data-entity-1="ent0002" data-entity-2="ent0005" data-link-type="crowfoot" data-source-line="59" id="lnk9"><path codeLine="59" d="M363.294,143.0759 C348.684,167.5059 345.3714,173.0534 330.7614,197.4734" fill="none" id="USERS-API_KEYS" style="stroke:#181818;stroke-width:1;"/><line style="stroke:#181818;stroke-width:1;" x1="361.914" x2="368.7799" y1="137.5899" y2="141.696"/><line style="stroke:#181818;stroke-width:1;" x1="360.3743" x2="367.2402" y1="140.1646" y2="144.2707"/><line style="stroke:#181818;stroke-width:1;" x1="363.294" x2="367.4" y1="143.0759" y2="136.21"/><line style="stroke:#181818;stroke-width:1;" x1="325.6273" x2="326.6689" y1="206.0549" y2="216.0005"/><line style="stroke:#181818;stroke-width:1;" x1="325.6273" x2="316.3711" y1="206.0549" y2="209.8395"/><line style="stroke:#181818;stroke-width:1;" x1="325.6273" x2="321.52" y1="206.0549" y2="212.92"/><ellipse cx="328.7077" cy="200.906" fill="none" rx="4" ry="4" style="stroke:#181818;stroke-width:1;"/><text fill="#000000" font-family="sans-serif" font-size="13" lengthAdjust="spacing" textLength="22.9785" x="349.5" y="179.0669">has</text></g><!--link USERS to RATE_LIMITS--><g class="link" data-entity-1="ent0002" data-entity-2="ent0006" data-link-type="crowfoot" data-source-line="60" id="lnk10"><path codeLine="60" d="M447.7063,143.0757 C463.9263,170.1957 469.3317,179.2316 484.9817,205.4016" fill="none" id="USERS-RATE_LIMITS" style="stroke:#181818;stroke-width:1;"/><line style="stroke:#181818;stroke-width:1;" x1="442.2203" x2="449.086" y1="141.696" y2="137.5897"/><line style="stroke:#181818;stroke-width:1;" x1="443.7601" x2="450.6259" y1="144.2707" y2="140.1644"/><line style="stroke:#181818;stroke-width:1;" x1="447.7063" x2="443.6" y1="143.0757" y2="136.21"/><line style="stroke:#181818;stroke-width:1;" x1="490.1141" x2="499.3695" y1="213.984" y2="217.7706"/><line style="stroke:#181818;stroke-width:1;" x1="490.1141" x2="489.0705" y1="213.984" y2="223.9294"/><line style="stroke:#181818;stroke-width:1;" x1="490.1141" x2="494.22" y1="213.984" y2="220.85"/><ellipse cx="487.0346" cy="208.8346" fill="none" rx="4" ry="4" style="stroke:#181818;stroke-width:1;"/><text fill="#000000" font-family="sans-serif" font-size="13" lengthAdjust="spacing" textLength="67.2915" x="470.5" y="179.0669">limited_by</text></g><!--link USERS to DOMAINS--><g class="link" data-entity-1="ent0002" data-entity-2="ent0007" data-link-type="crowfoot" data-source-line="61" id="lnk11"><path codeLine="61" d="M517.0846,131.016 C572.3346,159.996 616.9778,183.4125 672.4678,212.5025" fill="none" id="USERS-DOMAINS" style="stroke:#181818;stroke-width:1;"/><line style="stroke:#181818;stroke-width:1;" x1="511.6843" x2="515.4003" y1="132.7003" y2="125.6157"/><line style="stroke:#181818;stroke-width:1;" x1="514.341" x2="518.057" y1="134.0938" y2="127.0092"/><line style="stroke:#181818;stroke-width:1;" x1="517.0846" x2="510" y1="131.016" y2="127.3"/><line style="stroke:#181818;stroke-width:1;" x1="681.3246" x2="691.1958" y1="217.1456" y2="215.5459"/><line style="stroke:#181818;stroke-width:1;" x1="681.3246" x2="685.6242" y1="217.1456" y2="226.1741"/><line style="stroke:#181818;stroke-width:1;" x1="681.3246" x2="688.41" y1="217.1456" y2="220.86"/><ellipse cx="676.0105" cy="214.3597" fill="none" rx="4" ry="4" style="stroke:#181818;stroke-width:1;"/><text fill="#000000" font-family="sans-serif" font-size="13" lengthAdjust="spacing" textLength="33.5981" x="612.5" y="179.0669">owns</text></g><!--link URLS to CLICKS--><g class="link" data-entity-1="ent0003" data-entity-2="ent0004" data-link-type="crowfoot" data-source-line="63" id="lnk12"><path codeLine="63" d="M130.5,605.1 C130.5,630.07 130.5,631.11 130.5,655.6" fill="none" id="URLS-CLICKS" style="stroke:#181818;stroke-width:1;"/><line style="stroke:#181818;stroke-width:1;" x1="126.5" x2="134.5" y1="601.1" y2="601.1"/><line style="stroke:#181818;stroke-width:1;" x1="126.5" x2="134.5" y1="604.1" y2="604.1"/><line style="stroke:#181818;stroke-width:1;" x1="130.5" x2="130.5" y1="605.1" y2="597.1"/><line style="stroke:#181818;stroke-width:1;" x1="130.5" x2="136.5" y1="665.6" y2="673.6"/><line style="stroke:#181818;stroke-width:1;" x1="130.5" x2="124.5" y1="665.6" y2="673.6"/><line style="stroke:#181818;stroke-width:1;" x1="130.5" x2="130.5" y1="665.6" y2="673.6"/><ellipse cx="130.5" cy="659.6" fill="none" rx="4" ry="4" style="stroke:#181818;stroke-width:1;"/><text fill="#000000" font-family="sans-serif" font-size="13" lengthAdjust="spacing" textLength="54.5645" x="131.5" y="640.0669">receives</text></g><!--link DOMAINS to URLS--><g class="link" data-entity-1="ent0007" data-entity-2="ent0003" data-link-type="crowfoot" data-source-line="65" id="lnk13"><path codeLine="65" d="M655.9026,336.986 C648.8726,339.716 649.34,339.47 642.5,342 C511.31,390.45 375.6229,433.4381 271.3029,465.1281" fill="none" id="DOMAINS-URLS" style="stroke:#181818;stroke-width:1;"/><line style="stroke:#181818;stroke-width:1;" x1="658.1833" x2="661.0793" y1="331.8093" y2="339.2667"/><line style="stroke:#181818;stroke-width:1;" x1="655.3868" x2="658.2827" y1="332.8953" y2="340.3527"/><line style="stroke:#181818;stroke-width:1;" x1="655.9026" x2="663.36" y1="336.986" y2="334.09"/><line style="stroke:#181818;stroke-width:1;" x1="261.7346" x2="255.824" y1="468.0347" y2="476.101"/><line style="stroke:#181818;stroke-width:1;" x1="261.7346" x2="252.336" y1="468.0347" y2="464.619"/><line style="stroke:#181818;stroke-width:1;" x1="261.7346" x2="254.08" y1="468.0347" y2="470.36"/><ellipse cx="267.4756" cy="466.2907" fill="none" rx="4" ry="4" style="stroke:#181818;stroke-width:1;"/><text fill="#000000" font-family="sans-serif" font-size="13" lengthAdjust="spacing" textLength="42.5801" x="546.5" y="385.0669">serves</text></g><?plantuml-src hPJTJkCm48NlynGMbqXzWGWXPOi1gtyGqjNkbMNYWOv8uwpjDaImxyuqIRj9H5SWDJUHvep7tvd917AFlc9d6mVMdJ7bsFA1nm_iBM3qd3FKB6G_n8sO9-pYucvoULaBer7zojKQIFyPnUFRAAv3i5QO_OlHeULSt2zvUx1GpfN6QhbIRZKucbfG7hHKdeIhAE69cF7WRn307j9cBMCy_IhYpfZifrplKzpAM2zJe-4uiB7uZBdA95rEMGd_bTHnT3BTE6_MKcL8I5H_iPZoQFuVAtL_NWkqu3vHLhXZsUJ-mDhrdcQOlZJknrCnddpPlysEsQzBVWg9XLHQ4wORZcZ7Pwj1LCCMKv2-AePVmwCr9GsW4-rOKWNA5wWQKz6Ta1F--nHZRUiUd-btfzDXjdHGPhX6ts37b2EdOYQIKv1R-BC1vztXEo2Tt_2cboNcsfJIUMMFqMb3svStP5UBMIJcfw1ggih-iWzxkWMBJmYwimW4rlnCtjz78_FMR6t8J9cxld2OVSZejz3NkWqEMTrvcjnZrS_Qcssh1_LLhTQkIqZTJG6tGF8-lGz6BI3r0m00?></g></svg>