<?plantuml 1.2026.2?><svg xmlns="http://www.w3.org/2000/svg" xmlns:xlink="http://www.w3.org/1999/xlink" contentStyleType="text/css" data-diagram-type="DESCRIPTION" height="789px" preserveAspectRatio="none" style="width:1385px;height:789px;background:#FFFFFF;" version="1.1" viewBox="0 0 1385 789" width="1385px" zoomAndPan="magnify"><title>URL Shortener - High Level Design</title><defs/><g><g class="title" data-source-line="1"><text fill="#000000" font-family="sans-serif" font-size="14" font-weight="bold" lengthAdjust="spacing" textLength="272.9521" x="549.2561" y="22.9951">URL Shortener - High Level Design</text></g><!--cluster Request Paths--><g class="cluster" data-qualified-name="Request Paths" data-source-line="36" id="ent0021"><rect fill="none" height="715" rx="2.5" ry="2.5" style="stroke:#181818;stroke-width:1;" width="567" x="602" y="44.2969"/><text fill="#000000" font-family="sans-serif" font-size="14" font-weight="bold" lengthAdjust="spacing" textLength="114.3584" x="828.3208" y="59.292">Request Paths</text></g><!--cluster Write Flow--><g class="cluster" data-qualified-name="Request Paths.Write Flow" data-source-line="38" id="ent0022"><rect fill="none" height="648" rx="2.5" ry="2.5" style="stroke:#181818;stroke-width:1;" width="178" x="626" y="87.2969"/><text fill="#000000" font-family="sans-serif" font-size="14" font-weight="bold" lengthAdjust="spacing" textLength="85.1211" x="672.4395" y="102.292">Write Flow</text></g><!--cluster Read Flow--><g class="cluster" data-qualified-name="Request Paths.Read Flow" data-source-line="45" id="ent0032"><rect fill="none" height="468.5" rx="2.5" ry="2.5" style="stroke:#181818;stroke-width:1;" width="317" x="828" y="87.2969"/><text fill="#000000" font-family="sans-serif" font-size="14" font-weight="bold" lengthAdjust="spacing" textLength="81.5322" x="945.7339" y="102.292">Read Flow</text></g><!--entity POST /shorten--><g class="entity" data-qualified-name="Request Paths.Write Flow.POST .shorten" data-source-line="39" id="ent0023"><rect fill="#F1F1F1" height="36.2969" rx="2.5" ry="2.5" style="stroke:#181818;stroke-width:0.5;" width="119.5313" x="655" y="122.2969"/><text fill="#000000" font-family="sans-serif" font-size="14" lengthAdjust="spacing" textLength="99.5313" x="665" y="145.292">POST /shorten</text></g><!--entity API--><g class="entity" data-qualified-name="Request Paths.Write Flow.API" data-source-line="39" id="ent0024"><rect fill="#F1F1F1" height="36.2969" rx="2.5" ry="2.5" style="stroke:#181818;stroke-width:0.5;" width="42.1484" x="694" y="260.2969"/><text fill="#000000" font-family="sans-serif" font-size="14" lengthAdjust="spacing" textLength="22.1484" x="704" y="283.292">API</text></g><!--entity PostgreSQL--><g class="entity" data-qualified-name="Request Paths.Write Flow.PostgreSQL" data-source-line="40" id="ent0026"><rect fill="#F1F1F1" height="36.2969" rx="2.5" ry="2.5" style="stroke:#181818;stroke-width:0.5;" width="100.7529" x="664.5" y="378.2969"/><text fill="#000000" font-family="sans-serif" font-size="14" lengthAdjust="spacing" textLength="80.7529" x="674.5" y="401.292">PostgreSQL</text></g><!--entity Base62 Short URL--><g class="entity" data-qualified-name="Request Paths.Write Flow.Base62 Short URL" data-source-line="41" id="ent0028"><rect fill="#F1F1F1" height="36.2969" rx="2.5" ry="2.5" style="stroke:#181818;stroke-width:0.5;" width="146.1504" x="642" y="503.7969"/><text fill="#000000" font-family="sans-serif" font-size="14" lengthAdjust="spacing" textLength="126.1504" x="652" y="526.792">Base62 Short URL</text></g><!--entity Return 200--><g class="entity" data-qualified-name="Request Paths.Write Flow.Return 200" data-source-line="42" id="ent0030"><rect fill="#F1F1F1" height="36.2969" rx="2.5" ry="2.5" style="stroke:#181818;stroke-width:0.5;" width="98.5039" x="665.5" y="683.2969"/><text fill="#000000" font-family="sans-serif" font-size="14" lengthAdjust="spacing" textLength="78.5039" x="675.5" y="706.292">Return 200</text></g><!--entity GET /{code}--><g class="entity" data-qualified-name="Request Paths.Read Flow.GET ..code." data-source-line="46" id="ent0033"><rect fill="#F1F1F1" height="36.2969" rx="2.5" ry="2.5" style="stroke:#181818;stroke-width:0.5;" width="108.9902" x="919.5" y="122.2969"/><text fill="#000000" font-family="sans-serif" font-size="14" lengthAdjust="spacing" textLength="88.9902" x="929.5" y="145.292">GET /{code}</text></g><!--entity Check Redis--><g class="entity" data-qualified-name="Request Paths.Read Flow.Check Redis" data-source-line="46" id="ent0034"><rect fill="#F1F1F1" height="36.2969" rx="2.5" ry="2.5" style="stroke:#181818;stroke-width:0.5;" width="105.9277" x="921" y="260.2969"/><text fill="#000000" font-family="sans-serif" font-size="14" lengthAdjust="spacing" textLength="85.9277" x="931" y="283.292">Check Redis</text></g><!--entity HIT ? 302--><g class="entity" data-qualified-name="Request Paths.Read Flow.HIT . 302" data-source-line="48" id="ent0036"><rect fill="#F1F1F1" height="36.2969" rx="2.5" ry="2.5" style="stroke:#181818;stroke-width:0.5;" width="90.5605" x="844.5" y="378.2969"/><text fill="#000000" font-family="sans-serif" font-size="14" lengthAdjust="spacing" textLength="70.5605" x="854.5" y="401.292">HIT &#8594; 302</text></g><!--entity MISS ? PG ? Cache--><g class="entity" data-qualified-name="Request Paths.Read Flow.MISS . PG . Cache" data-source-line="49" id="ent0038"><rect fill="#F1F1F1" height="36.2969" rx="2.5" ry="2.5" style="stroke:#181818;stroke-width:0.5;" width="158.0723" x="971" y="378.2969"/><text fill="#000000" font-family="sans-serif" font-size="14" lengthAdjust="spacing" textLength="138.0723" x="981" y="401.292">MISS &#8594; PG &#8594; Cache</text></g><!--entity 302 Redirect--><g class="entity" data-qualified-name="Request Paths.Read Flow.302 Redirect" data-source-line="51" id="ent0040"><rect fill="#F1F1F1" height="36.2969" rx="2.5" ry="2.5" style="stroke:#181818;stroke-width:0.5;" width="109.8447" x="995" y="503.7969"/><text fill="#000000" font-family="sans-serif" font-size="14" lengthAdjust="spacing" textLength="89.8447" x="1005" y="526.792">302 Redirect</text></g><!--entity Client--><g class="entity" data-qualified-name="Client" data-source-line="6" id="ent0002"><ellipse cx="311.79" cy="102.2969" fill="#F1F1F1" rx="8" ry="8" style="stroke:#181818;stroke-width:0.5;"/><path d="M311.79,110.2969 L311.79,137.2969 M298.79,118.2969 L324.79,118.2969 M311.79,137.2969 L298.79,152.2969 M311.79,137.2969 L324.79,152.2969" fill="none" style="stroke:#181818;stroke-width:0.5;"/><text fill="#000000" font-family="sans-serif" font-size="14" lengthAdjust="spacing" textLength="40.5303" x="253.5" y="166.792">Client</text><text fill="#000000" font-family="sans-serif" font-size="14" lengthAdjust="spacing" textLength="116.5801" x="253.5" y="183.0889">Browser / Mobile</text></g><!--entity LB--><g class="entity" data-qualified-name="LB" data-source-line="8" id="ent0003"><polygon fill="#F1F1F1" points="188.5,256.7969,198.5,246.7969,435.8613,246.7969,435.8613,299.3906,425.8613,309.3906,188.5,309.3906,188.5,256.7969" style="stroke:#181818;stroke-width:0.5;"/><line style="stroke:#181818;stroke-width:0.5;" x1="425.8613" x2="435.8613" y1="256.7969" y2="246.7969"/><line style="stroke:#181818;stroke-width:0.5;" x1="188.5" x2="425.8613" y1="256.7969" y2="256.7969"/><line style="stroke:#181818;stroke-width:0.5;" x1="425.8613" x2="425.8613" y1="256.7969" y2="309.3906"/><text fill="#000000" font-family="sans-serif" font-size="14" lengthAdjust="spacing" textLength="99.873" x="203.5" y="279.792">Load Balancer</text><text fill="#000000" font-family="sans-serif" font-size="14" lengthAdjust="spacing" textLength="207.3613" x="203.5" y="296.0889">Round-robin + Health Checks</text></g><!--entity API1--><g class="entity" data-qualified-name="API1" data-source-line="10" id="ent0004"><rect fill="#F1F1F1" height="52.5938" rx="2.5" ry="2.5" style="stroke:#181818;stroke-width:0.5;" width="105.8662" x="118" y="369.7969"/><text fill="#000000" font-family="sans-serif" font-size="14" lengthAdjust="spacing" textLength="85.8662" x="128" y="392.792">API Server 1</text><text fill="#000000" font-family="sans-serif" font-size="14" lengthAdjust="spacing" textLength="51.5635" x="128" y="409.0889">FastAPI</text></g><!--entity API2--><g class="entity" data-qualified-name="API2" data-source-line="11" id="ent0005"><rect fill="#F1F1F1" height="52.5938" rx="2.5" ry="2.5" style="stroke:#181818;stroke-width:0.5;" width="105.8662" x="259" y="369.7969"/><text fill="#000000" font-family="sans-serif" font-size="14" lengthAdjust="spacing" textLength="85.8662" x="269" y="392.792">API Server 2</text><text fill="#000000" font-family="sans-serif" font-size="14" lengthAdjust="spacing" textLength="51.5635" x="269" y="409.0889">FastAPI</text></g><!--entity API3--><g class="entity" data-qualified-name="API3" data-source-line="12" id="ent0006"><rect fill="#F1F1F1" height="52.5938" rx="2.5" ry="2.5" style="stroke:#181818;stroke-width:0.5;" width="105.8662" x="400" y="369.7969"/><text fill="#000000" font-family="sans-serif" font-size="14" lengthAdjust="spacing" textLength="85.8662" x="410" y="392.792">API Server 3</text><text fill="#000000" font-family="sans-serif" font-size="14" lengthAdjust="spacing" textLength="51.5635" x="410" y="409.0889">FastAPI</text></g><!--entity RL--><g class="entity" data-qualified-name="RL" data-source-line="14" id="ent0007"><rect fill="#F1F1F1" height="52.5938" rx="2.5" ry="2.5" style="stroke:#181818;stroke-width:0.5;" width="91.5654" x="7" y="495.2969"/><text fill="#000000" font-family="sans-serif" font-size="14" lengthAdjust="spacing" textLength="71.5654" x="17" y="518.292">Rate Limit</text><text fill="#000000" font-family="sans-serif" font-size="14" lengthAdjust="spacing" textLength="48.9316" x="17" y="534.5889">10/min</text></g><!--entity Analytics--><g class="entity" data-qualified-name="Analytics" data-source-line="15" id="ent0008"><rect fill="#F1F1F1" height="52.5938" rx="2.5" ry="2.5" style="stroke:#181818;stroke-width:0.5;" width="83.5742" x="502" y="495.2969"/><text fill="#000000" font-family="sans-serif" font-size="14" lengthAdjust="spacing" textLength="63.5742" x="512" y="518.292">Analytics</text><text fill="#000000" font-family="sans-serif" font-size="14" lengthAdjust="spacing" textLength="49.0068" x="512" y="534.5889">hits++</text></g><!--entity Redis--><g class="entity" data-qualified-name="Redis" data-source-line="17" id="ent0009"><path d="M134,500.7969 C134,490.7969 220.0464,490.7969 220.0464,490.7969 C220.0464,490.7969 306.0928,490.7969 306.0928,500.7969 L306.0928,542.3906 C306.0928,552.3906 220.0464,552.3906 220.0464,552.3906 C220.0464,552.3906 134,552.3906 134,542.3906 L134,500.7969" fill="#F1F1F1" style="stroke:#181818;stroke-width:0.5;"/><path d="M134,500.7969 C134,510.7969 220.0464,510.7969 220.0464,510.7969 C220.0464,510.7969 306.0928,510.7969 306.0928,500.7969" fill="none" style="stroke:#181818;stroke-width:0.5;"/><text fill="#000000" font-family="sans-serif" font-size="14" lengthAdjust="spacing" textLength="86.3994" x="144" y="527.792">Redis Cache</text><text fill="#000000" font-family="sans-serif" font-size="14" lengthAdjust="spacing" textLength="152.0928" x="144" y="544.0889">Cache-aside, TTL 1 hr</text></g><!--entity PG--><g class="entity" data-qualified-name="PG" data-source-line="18" id="ent0010"><path d="M341.5,492.7969 C341.5,482.7969 404.1333,482.7969 404.1333,482.7969 C404.1333,482.7969 466.7666,482.7969 466.7666,492.7969 L466.7666,550.6875 C466.7666,560.6875 404.1333,560.6875 404.1333,560.6875 C404.1333,560.6875 341.5,560.6875 341.5,550.6875 L341.5,492.7969" fill="#F1F1F1" style="stroke:#181818;stroke-width:0.5;"/><path d="M341.5,492.7969 C341.5,502.7969 404.1333,502.7969 404.1333,502.7969 C404.1333,502.7969 466.7666,502.7969 466.7666,492.7969" fill="none" style="stroke:#181818;stroke-width:0.5;"/><text fill="#000000" font-family="sans-serif" font-size="14" lengthAdjust="spacing" textLength="80.7529" x="351.5" y="519.792">PostgreSQL</text><text fill="#000000" font-family="sans-serif" font-size="14" lengthAdjust="spacing" textLength="105.2666" x="351.5" y="536.0889">Source of truth</text><text fill="#000000" font-family="sans-serif" font-size="14" lengthAdjust="spacing" textLength="86.3652" x="351.5" y="552.3857">B-tree Index</text></g><g class="entity" data-qualified-name="GMN43" data-source-line="57" id="ent0044"><path d="M1185.5,620.7969 L1185.5,622.4569 L1072.25,539.8169 L1185.5,630.4569 L1185.5,782.125 A0,0 0 0 0 1185.5,782.125 L1378.4644,782.125 A0,0 0 0 0 1378.4644,782.125 L1378.4644,630.7969 L1368.4644,620.7969 L1185.5,620.7969 A0,0 0 0 0 1185.5,620.7969" fill="#FEFFDD" style="stroke:#181818;stroke-width:0.5;"/><path d="M1368.4644,620.7969 L1368.4644,630.7969 L1378.4644,630.7969 L1368.4644,620.7969" fill="#FEFFDD" style="stroke:#181818;stroke-width:0.5;"/><text fill="#000000" font-family="sans-serif" font-size="13" lengthAdjust="spacing" textLength="145.6851" x="1191.5" y="637.8638">Read : Write = 100 : 1</text><text fill="#000000" font-family="sans-serif" font-size="13" lengthAdjust="spacing" textLength="4.1323" x="1191.5" y="652.9966">&#160;</text><text fill="#000000" font-family="sans-serif" font-size="13" lengthAdjust="spacing" textLength="52.5776" x="1191.5" y="668.1294">Base62:</text><text fill="#000000" font-family="sans-serif" font-size="13" lengthAdjust="spacing" textLength="171.9644" x="1191.5" y="683.2622">62^6 = 56B combinations</text><text fill="#000000" font-family="sans-serif" font-size="13" lengthAdjust="spacing" textLength="4.1323" x="1191.5" y="698.395">&#160;</text><text fill="#000000" font-family="sans-serif" font-size="13" lengthAdjust="spacing" textLength="58.8618" x="1191.5" y="713.5278">Redirect:</text><text fill="#000000" font-family="sans-serif" font-size="13" lengthAdjust="spacing" textLength="79.1807" x="1191.5" y="728.6606">302 not 301</text><text fill="#000000" font-family="sans-serif" font-size="13" lengthAdjust="spacing" textLength="4.1323" x="1191.5" y="743.7935">&#160;</text><text fill="#000000" font-family="sans-serif" font-size="13" lengthAdjust="spacing" textLength="70.8335" x="1191.5" y="758.9263">Rate Limit:</text><text fill="#000000" font-family="sans-serif" font-size="13" lengthAdjust="spacing" textLength="106.0439" x="1191.5" y="774.0591">10 requests/min</text></g><!--link Client to LB--><g class="link" data-entity-1="ent0002" data-entity-2="ent0003" data-link-type="dependency" data-source-line="20" id="lnk11"><path d="M312,186.9569 C312,206.5569 312,222.9469 312,240.5269" fill="none" id="Client-to-LB" style="stroke:#181818;stroke-width:1;"/><polygon fill="#181818" points="312,246.5269,316,237.5269,312,241.5269,308,237.5269,312,246.5269" style="stroke:#181818;stroke-width:1;"/></g><!--link LB to API1--><g class="link" data-entity-1="ent0003" data-entity-2="ent0004" data-link-type="dependency" data-source-line="22" id="lnk12"><path d="M274.58,310.0769 C252.07,328.6069 228.364,348.1055 207.014,365.6655" fill="none" id="LB-to-API1" style="stroke:#181818;stroke-width:1;"/><polygon fill="#181818" points="202.38,369.4769,211.8718,366.8492,206.2416,366.3007,206.79,360.6705,202.38,369.4769" style="stroke:#181818;stroke-width:1;"/></g><!--link LB to API2--><g class="link" data-entity-1="ent0003" data-entity-2="ent0005" data-link-type="dependency" data-source-line="23" id="lnk13"><path d="M312,310.0769 C312,328.6069 312,345.9169 312,363.4769" fill="none" id="LB-to-API2" style="stroke:#181818;stroke-width:1;"/><polygon fill="#181818" points="312,369.4769,316,360.4769,312,364.4769,308,360.4769,312,369.4769" style="stroke:#181818;stroke-width:1;"/></g><!--link LB to API3--><g class="link" data-entity-1="ent0003" data-entity-2="ent0006" data-link-type="dependency" data-source-line="24" id="lnk14"><path d="M349.42,310.0769 C371.93,328.6069 395.636,348.1055 416.986,365.6655" fill="none" id="LB-to-API3" style="stroke:#181818;stroke-width:1;"/><polygon fill="#181818" points="421.62,369.4769,417.21,360.6705,417.7584,366.3007,412.1282,366.8492,421.62,369.4769" style="stroke:#181818;stroke-width:1;"/></g><!--link API1 to RL--><g class="link" data-entity-1="ent0004" data-entity-2="ent0007" data-link-type="dependency" data-source-line="26" id="lnk15"><path d="M146.55,422.8869 C126.3,444.0769 101.8053,469.7191 81.5653,490.8991" fill="none" id="API1-to-RL" style="stroke:#181818;stroke-width:1;"/><polygon fill="#181818" points="77.42,495.2369,86.5298,491.4937,80.8744,491.622,80.7461,485.9666,77.42,495.2369" style="stroke:#181818;stroke-width:1;"/></g><!--link API1 to Redis--><g class="link" data-entity-1="ent0004" data-entity-2="ent0009" data-link-type="dependency" data-source-line="28" id="lnk16"><path d="M181.15,422.8869 C188.95,442.5269 197.517,464.1299 205.747,484.8699" fill="none" id="API1-to-Redis" style="stroke:#181818;stroke-width:1;"/><polygon fill="#181818" points="207.96,490.4469,208.3584,480.6061,206.1158,485.7994,200.9225,483.5568,207.96,490.4469" style="stroke:#181818;stroke-width:1;"/></g><!--link API2 to Redis--><g class="link" data-entity-1="ent0005" data-entity-2="ent0009" data-link-type="dependency" data-source-line="29" id="lnk17"><path d="M292.94,422.8869 C278.31,442.5269 261.6444,464.8952 246.1944,485.6352" fill="none" id="API2-to-Redis" style="stroke:#181818;stroke-width:1;"/><polygon fill="#181818" points="242.61,490.4469,251.1944,485.619,245.597,486.4372,244.7788,480.8398,242.61,490.4469" style="stroke:#181818;stroke-width:1;"/></g><!--link API2 to PG--><g class="link" data-entity-1="ent0005" data-entity-2="ent0010" data-link-type="dependency" data-source-line="31" id="lnk18"><path d="M331.06,422.8869 C343.9,440.1269 357.4859,458.355 371.9359,477.755" fill="none" id="API2-to-PG" style="stroke:#181818;stroke-width:1;"/><polygon fill="#181818" points="375.52,482.5669,373.3518,472.9597,372.5332,478.557,366.9359,477.7385,375.52,482.5669" style="stroke:#181818;stroke-width:1;"/></g><!--link API3 to PG--><g class="link" data-entity-1="ent0006" data-entity-2="ent0010" data-link-type="dependency" data-source-line="32" id="lnk19"><path d="M442.85,422.8869 C436.01,440.1269 429.071,457.5891 421.381,476.9891" fill="none" id="API3-to-PG" style="stroke:#181818;stroke-width:1;"/><polygon fill="#181818" points="419.17,482.5669,426.205,475.6742,421.0125,477.9187,418.768,472.7262,419.17,482.5669" style="stroke:#181818;stroke-width:1;"/></g><!--link API3 to Analytics--><g class="link" data-entity-1="ent0006" data-entity-2="ent0008" data-link-type="dependency" data-source-line="34" id="lnk20"><path d="M471.86,422.8869 C487.47,444.0769 506.0003,469.2269 521.6103,490.4069" fill="none" id="API3-to-Analytics" style="stroke:#181818;stroke-width:1;"/><polygon fill="#181818" points="525.17,495.2369,523.0503,485.6188,522.2036,491.2119,516.6104,490.3651,525.17,495.2369" style="stroke:#181818;stroke-width:1;"/></g><!--link POST /shorten to API--><g class="link" data-entity-1="ent0023" data-entity-2="ent0024" data-link-type="dependency" data-source-line="39" id="lnk25"><path d="M715,158.5169 C715,184.6769 715,228.1369 715,254.2169" fill="none" id="POST /shorten-to-API" style="stroke:#181818;stroke-width:1;"/><polygon fill="#181818" points="715,260.2169,719,251.2169,715,255.2169,711,251.2169,715,260.2169" style="stroke:#181818;stroke-width:1;"/></g><!--link API to PostgreSQL--><g class="link" data-entity-1="ent0024" data-entity-2="ent0026" data-link-type="dependency" data-source-line="40" id="lnk27"><path d="M715,296.4169 C715,318.3469 715,350.1469 715,372.1069" fill="none" id="API-to-PostgreSQL" style="stroke:#181818;stroke-width:1;"/><polygon fill="#181818" points="715,378.1069,719,369.1069,715,373.1069,711,369.1069,715,378.1069" style="stroke:#181818;stroke-width:1;"/></g><!--link PostgreSQL to Base62 Short URL--><g class="link" data-entity-1="ent0026" data-entity-2="ent0028" data-link-type="dependency" data-source-line="41" id="lnk29"><path d="M715,414.4669 C715,438.0669 715,474.2569 715,497.7669" fill="none" id="PostgreSQL-to-Base62 Short URL" style="stroke:#181818;stroke-width:1;"/><polygon fill="#181818" points="715,503.7669,719,494.7669,715,498.7669,711,494.7669,715,503.7669" style="stroke:#181818;stroke-width:1;"/></g><!--link Base62 Short URL to Return 200--><g class="link" data-entity-1="ent0028" data-entity-2="ent0030" data-link-type="dependency" data-source-line="42" id="lnk31"><path d="M715,539.8169 C715,573.6569 715,643.0569 715,677.0669" fill="none" id="Base62 Short URL-to-Return 200" style="stroke:#181818;stroke-width:1;"/><polygon fill="#181818" points="715,683.0669,719,674.0669,715,678.0669,711,674.0669,715,683.0669" style="stroke:#181818;stroke-width:1;"/></g><!--link GET /{code} to Check Redis--><g class="link" data-entity-1="ent0033" data-entity-2="ent0034" data-link-type="dependency" data-source-line="46" id="lnk35"><path d="M974,158.5169 C974,184.6769 974,228.1369 974,254.2169" fill="none" id="GET /{code}-to-Check Redis" style="stroke:#181818;stroke-width:1;"/><polygon fill="#181818" points="974,260.2169,978,251.2169,974,255.2169,970,251.2169,974,260.2169" style="stroke:#181818;stroke-width:1;"/></g><!--link Check Redis to HIT ? 302--><g class="link" data-entity-1="ent0034" data-entity-2="ent0036" data-link-type="dependency" data-source-line="48" id="lnk37"><path d="M961.61,296.4169 C945.72,318.3469 921.8688,351.287 905.9688,373.247" fill="none" id="Check Redis-to-HIT &#8594; 302" style="stroke:#181818;stroke-width:1;"/><polygon fill="#181818" points="902.45,378.1069,910.9681,373.1629,905.3823,374.057,904.4882,368.4712,902.45,378.1069" style="stroke:#181818;stroke-width:1;"/></g><!--link Check Redis to MISS ? PG ? Cache--><g class="link" data-entity-1="ent0034" data-entity-2="ent0038" data-link-type="dependency" data-source-line="49" id="lnk39"><path d="M985.21,296.4169 C999.58,318.3469 1021.0615,351.1284 1035.4515,373.0884" fill="none" id="Check Redis-to-MISS &#8594; PG &#8594; Cache" style="stroke:#181818;stroke-width:1;"/><polygon fill="#181818" points="1038.74,378.1069,1037.1529,368.3867,1035.9995,373.9248,1030.4615,372.7715,1038.74,378.1069" style="stroke:#181818;stroke-width:1;"/></g><!--link HIT ? 302 to 302 Redirect--><g class="link" data-entity-1="ent0036" data-entity-2="ent0040" data-link-type="dependency" data-source-line="51" id="lnk41"><path d="M912.25,414.4669 C942.82,438.0669 992.7197,476.5916 1023.1897,500.1016" fill="none" id="HIT &#8594; 302-to-302 Redirect" style="stroke:#181818;stroke-width:1;"/><polygon fill="#181818" points="1027.94,503.7669,1023.258,495.1021,1023.9814,500.7125,1018.371,501.4359,1027.94,503.7669" style="stroke:#181818;stroke-width:1;"/></g><!--link MISS ? PG ? Cache to 302 Redirect--><g class="link" data-entity-1="ent0038" data-entity-2="ent0040" data-link-type="dependency" data-source-line="52" id="lnk42"><path d="M1050,414.4669 C1050,438.0669 1050,474.2569 1050,497.7669" fill="none" id="MISS &#8594; PG &#8594; Cache-to-302 Redirect" style="stroke:#181818;stroke-width:1;"/><polygon fill="#181818" points="1050,503.7669,1054,494.7669,1050,498.7669,1046,494.7669,1050,503.7669" style="stroke:#181818;stroke-width:1;"/></g><?plantuml-src VLJ1Rjim3BthAuXSiw2sW-KGO0EMRaq2k5XcPzYXoG35PcEXZjH9IhkYo7KVi4_SbuoIcbf5rlaYaNfyf9v8Ms5RXAz53cMZj4M96WOm4zi6Shp35ZwY4Ll9cBaHyfPhleDAxMwLH6bB-q2n6YlBvRR5268QNgjx8RTmpLk3ZF7AAWszyrPGt4fEjBetbEaCBjL6jDW3RY0SCYPLZT3B5QzXmbikAzGhMQYzh0UQq1BwC4FUsWRE6wnkZ0_E9umz5mQz3uivbAZlA4UwaXVSMF9u8AtfAyZi19czWXoU88SlqXVS8kHY9-YkQNAs4zBZYlm5d-JjWnMLMSb6MDFl1wwZbx6QMxxXXiGei1Oa4AyQN4c_3BWHDRw1vJA751eT-1qi2bieOxSQoo_vIfPghoi4TGrMxsr3Rp2m6X7ciiQVFdenPIoy0Gm6xxsY-SHllMRTFelsT6ztwaswNcJuMXmwCZkRahdeuxupeli_TvOJuCSUZOK5jmqz-2DZG5y4-AO5INxHgdjt2a_VrU9pkOGp4rfxxHDSKQfrXt1My7TgHSUHCw0cfEme2zFYvYR2dXo5Y0BjNal8aYHW3oV55qYzVbBxz1EL_bZHD1oUc7o_1odNh0F6xW2SpPVmvzTl62RP-d-uotbPUk1YwXVVMZ5rJ1H2QESfNFaHzx-PNWivi8ERStgnZR9MxPXNO0pX5Tz1cYHafOm5ISTib7qVaV_jQE9-F_GJu5OeIJrov1qpbuKegLIAwmPmpDA4jFRjOzmaCfIr0-9V?></g></svg>